<svg width="32" height="32" viewBox="0 0 32 32" fill="none" xmlns="http://www.w3.org/2000/svg">
<path d="M9.33458 9.33334H22.6679V11.72C22.6679 12.32 23.3879 12.6133 23.8013 12.1867L27.5213 8.46667C27.7879 8.2 27.7879 7.78667 27.5213 7.52L23.8013 3.8C23.3879 3.38667 22.6679 3.68 22.6679 4.28V6.66667H8.00125C7.26792 6.66667 6.66792 7.26667 6.66792 8V13.3333C6.66792 14.0667 7.26792 14.6667 8.00125 14.6667C8.73458 14.6667 9.33458 14.0667 9.33458 13.3333V9.33334ZM22.6679 22.6667H9.33458V20.28C9.33458 19.68 8.61458 19.3867 8.20125 19.8133L4.48125 23.5333C4.21458 23.8 4.21458 24.2133 4.48125 24.48L8.20125 28.2C8.61458 28.6133 9.33458 28.32 9.33458 27.72V25.3333H24.0013C24.7346 25.3333 25.3346 24.7333 25.3346 24V18.6667C25.3346 17.9333 24.7346 17.3333 24.0013 17.3333C23.2679 17.3333 22.6679 17.9333 22.6679 18.6667V22.6667Z" fill="black"/>
</svg>
